<?xml version="1.0" encoding="iso-8859-1"?>
<!-- Generator: Adobe Illustrator 19.0.0, SVG Export Plug-In . SVG Version: 6.00 Build 0)  -->
<svg version="1.1" id="Layer_1" xmlns="http://www.w3.org/2000/svg" xmlns:xlink="http://www.w3.org/1999/xlink" x="0px" y="0px"
	 viewBox="0 0 512 512" style="enable-background:new 0 0 512 512;" xml:space="preserve">
<path style="fill:#FFDC64;" d="M295.455,63.57h-78.91c-8.958,0-16.604,6.477-18.077,15.314l-6.611,39.666h128.286l-6.611-39.666
	C312.059,70.048,304.413,63.57,295.455,63.57z"/>
<path style="fill:#707487;" d="M392.522,109.387H119.478c-11.56,0-21.884,7.231-25.835,18.095L63.57,210.183v27.49H448.43v-27.49
	l-30.073-82.701C414.406,116.618,404.081,109.387,392.522,109.387L392.522,109.387z"/>
<path style="fill:#5B5D6E;" d="M304.316,109.387H119.479c-11.56,0-21.884,7.231-25.835,18.095L63.57,210.183v27.49H176.03
	L304.316,109.387z"/>
<g>
	<path style="fill:#FFC850;" d="M26.917,173.53h9.163c10.122,0,18.327,8.205,18.327,18.327l0,0c0,10.122-8.205,18.327-18.327,18.327
		h-9.163c-10.122,0-18.327-8.205-18.327-18.327l0,0C8.591,181.735,16.795,173.53,26.917,173.53z"/>
	<path style="fill:#FFC850;" d="M475.919,173.53h9.163c10.122,0,18.327,8.205,18.327,18.327l0,0
		c0,10.122-8.205,18.327-18.327,18.327h-9.163c-10.122,0-18.327-8.205-18.327-18.327l0,0
		C457.593,181.735,465.797,173.53,475.919,173.53z"/>
</g>
<path style="fill:#5B5D6E;" d="M26.917,365.96v73.306c0,5.06,4.103,9.163,9.163,9.163h27.49c5.06,0,9.163-4.103,9.163-9.163V365.96
	H26.917z"/>
<path style="fill:#464655;" d="M26.917,411.543c7.681,5.814,17.135,9.397,27.49,9.397h18.327v-45.817H26.917V411.543z"/>
<path style="fill:#5B5D6E;" d="M485.083,365.96v73.306c0,5.06-4.103,9.163-9.163,9.163h-27.49c-5.06,0-9.163-4.103-9.163-9.163
	V365.96H485.083z"/>
<path style="fill:#464655;" d="M485.083,411.543c-7.681,5.814-17.135,9.397-27.49,9.397h-18.327v-45.817h45.817V411.543z"/>
<path style="fill:#FFDC64;" d="M477.051,245.96l-28.622-35.777H63.57L34.949,245.96c-5.199,6.499-8.032,14.574-8.032,22.897v97.102
	c0,15.182,12.307,27.49,27.49,27.49h403.186c15.182,0,27.49-12.307,27.49-27.49v-97.102
	C485.083,260.534,482.25,252.46,477.051,245.96z"/>
<path style="fill:#FFC850;" d="M100.224,329.306c-5.06,0-9.163-4.103-9.163-9.163v-51.286c0-8.324,2.04-16.398,5.783-22.897
	l20.607-35.777H63.57L34.949,245.96c-5.199,6.499-8.032,14.574-8.032,22.897v97.102c0,15.182,12.307,27.49,27.49,27.49h403.186
	c15.182,0,27.49-12.307,27.49-27.49v-36.653H100.224z"/>
<path style="fill:#5B5D6E;" d="M162.358,310.98h187.284c4.205,0,7.87-2.861,8.89-6.941l4.582-18.327
	c1.445-5.783-2.929-11.385-8.89-11.385H157.776c-5.962,0-10.335,5.602-8.89,11.385l4.582,18.327
	C154.488,308.119,158.153,310.98,162.358,310.98z"/>
<g>
	<circle style="fill:#FFFFFF;" cx="86.479" cy="288.072" r="22.908"/>
	<circle style="fill:#FFFFFF;" cx="425.521" cy="288.072" r="22.908"/>
</g>
<path style="fill:#464655;" d="M356.796,356.796H155.204c-5.06,0-9.163,4.103-9.163,9.163v27.49H365.96v-27.49
	C365.96,360.899,361.857,356.796,356.796,356.796z"/>
<path d="M365.959,201.593h-18.323c-4.744,0-8.591,3.846-8.591,8.591c0,4.744,3.846,8.591,8.591,8.591h18.323
	c4.744,0,8.591-3.846,8.591-8.591C374.549,205.439,370.703,201.593,365.959,201.593z"/>
<path d="M354.224,265.736H157.776c-5.505,0-10.605,2.489-13.994,6.828c-3.388,4.34-4.566,9.891-3.23,15.232l4.582,18.328
	c1.98,7.917,9.063,13.447,17.224,13.447h187.284c8.161,0,15.243-5.53,17.224-13.448l4.582-18.327
	c1.336-5.341,0.158-10.893-3.23-15.232C364.829,268.225,359.729,265.736,354.224,265.736z M354.779,283.63l-4.582,18.325
	c-0.064,0.257-0.292,0.434-0.556,0.434H162.358c-0.263,0-0.493-0.179-0.556-0.433l-4.582-18.327
	c-0.021-0.081-0.068-0.271,0.104-0.491s0.368-0.22,0.451-0.22h196.448c0.084,0,0.279,0,0.451,0.22
	C354.847,283.358,354.8,283.548,354.779,283.63z"/>
<path d="M485.083,218.774c14.842,0,26.917-12.075,26.917-26.917s-12.075-26.917-26.917-26.917h-9.163
	c-13.383,0-24.513,9.82-26.572,22.631l-22.917-63.023c-5.165-14.207-18.792-23.751-33.908-23.751h-65.337l-4.836-24.177
	c-2.506-12.539-13.608-21.639-26.394-21.639h-79.912c-12.786,0-23.886,9.1-26.394,21.639l-4.835,24.177h-65.337
	c-15.116,0-28.743,9.545-33.908,23.75L62.653,187.57c-2.059-12.81-13.189-22.63-26.572-22.63h-9.163
	C12.075,164.94,0,177.015,0,191.857c0,14.842,12.075,26.917,26.917,26.917h9.163c4.231,0,8.236-0.984,11.801-2.731l-19.64,24.551
	c-6.394,7.992-9.915,18.029-9.915,28.263v170.409c0,9.79,7.964,17.754,17.754,17.754h27.49c9.79,0,17.754-7.964,17.754-17.754
	V402.04h349.351v37.226c0,9.79,7.964,17.754,17.754,17.754h27.49c9.79,0,17.754-7.964,17.754-17.754V268.857
	c0-10.234-3.521-20.272-9.915-28.263l-19.64-24.551c3.566,1.747,7.57,2.731,11.801,2.731H485.083z M206.497,79.988
	c0.907-4.535,4.922-7.827,9.546-7.827h79.912c4.625,0,8.64,3.292,9.546,7.827l4.162,20.809H202.335L206.497,79.988z M36.081,201.593
	h-9.163c-5.369,0-9.736-4.367-9.736-9.736c0-5.369,4.367-9.736,9.736-9.736h9.163c5.369,0,9.736,4.367,9.736,9.736
	C45.817,197.225,41.449,201.593,36.081,201.593z M64.143,439.266c0,0.316-0.257,0.573-0.573,0.573h-27.49
	c-0.316,0-0.573-0.257-0.573-0.573v-42.588c5.5,3.396,11.974,5.362,18.899,5.362h9.736V439.266z M357.369,384.859H154.631V365.96
	c0-0.316,0.257-0.573,0.573-0.573h201.593c0.316,0,0.573,0.257,0.573,0.573V384.859z M475.919,439.839h-27.49
	c-0.316,0-0.573-0.257-0.573-0.573V402.04h9.736c6.925,0,13.399-1.966,18.899-5.362v42.588
	C476.492,439.582,476.236,439.839,475.919,439.839z M476.492,268.857v97.102c0,10.421-8.478,18.899-18.899,18.899H374.55V365.96
	c0-9.79-7.964-17.754-17.754-17.754H155.204c-9.79,0-17.754,7.964-17.754,17.754v18.899H54.407
	c-10.421,0-18.899-8.478-18.899-18.899v-97.102c0-6.348,2.184-12.574,6.15-17.531l26.041-32.553H310.98
	c4.744,0,8.591-3.846,8.591-8.591c0-4.744-3.846-8.591-8.591-8.591H75.836l25.882-71.175c2.705-7.441,9.843-12.44,17.761-12.44
	h273.044c7.918,0,15.055,5,17.761,12.44l25.882,71.175h-33.551c-4.744,0-8.591,3.846-8.591,8.591c0,4.744,3.846,8.591,8.591,8.591
	h41.688l26.042,32.553C474.308,256.284,476.492,262.509,476.492,268.857z M466.183,191.857c0-5.369,4.367-9.736,9.736-9.736h9.163
	c5.369,0,9.736,4.367,9.736,9.736c0,5.369-4.367,9.736-9.736,9.736h-9.163C470.551,201.593,466.183,197.225,466.183,191.857z"/>
<path d="M91.06,329.879c-9.79,0-17.754,7.964-17.754,17.754s7.964,17.754,17.754,17.754s17.754-7.964,17.754-17.754
	S100.85,329.879,91.06,329.879z"/>
<path d="M420.94,329.879c-9.79,0-17.754,7.964-17.754,17.754s7.964,17.754,17.754,17.754s17.754-7.964,17.754-17.754
	S430.729,329.879,420.94,329.879z"/>
<path d="M86.479,256.573c-17.369,0-31.499,14.13-31.499,31.499s14.13,31.499,31.499,31.499s31.499-14.13,31.499-31.499
	S103.848,256.573,86.479,256.573z M86.479,302.389c-7.895,0-14.318-6.422-14.318-14.318c0-7.895,6.422-14.318,14.318-14.318
	s14.318,6.422,14.318,14.318C100.796,295.967,94.374,302.389,86.479,302.389z"/>
<path d="M425.521,256.573c-17.369,0-31.499,14.13-31.499,31.499s14.13,31.499,31.499,31.499c17.369,0,31.499-14.13,31.499-31.499
	S442.89,256.573,425.521,256.573z M425.521,302.389c-7.895,0-14.318-6.422-14.318-14.318c0-7.895,6.422-14.318,14.318-14.318
	c7.895,0,14.318,6.422,14.318,14.318C439.839,295.967,433.417,302.389,425.521,302.389z"/>
<g>
</g>
<g>
</g>
<g>
</g>
<g>
</g>
<g>
</g>
<g>
</g>
<g>
</g>
<g>
</g>
<g>
</g>
<g>
</g>
<g>
</g>
<g>
</g>
<g>
</g>
<g>
</g>
<g>
</g>
</svg>
